<svg xmlns="http://www.w3.org/2000/svg" xmlns:xlink="http://www.w3.org/1999/xlink" viewBox="0 0 538.58299 538.58299"><defs><style>.cls-1{fill:none;}.cls-2{fill:#2062af;}.cls-3{fill:#3c9cd7;}.cls-4{fill:#fff;}.cls-5{fill:url(#linear-gradient);}.cls-6{fill:url(#linear-gradient-2);}.cls-7{fill:url(#linear-gradient-3);}.cls-11,.cls-8{opacity:0.05;}.cls-11,.cls-9{fill:#231f20;}.cls-10{fill:url(#linear-gradient-4);}</style><linearGradient id="linear-gradient" x1="199.51422" y1="276.32753" x2="199.51422" y2="160.95617" gradientUnits="userSpaceOnUse"><stop offset="0.3865" stop-color="#d1d3d4" stop-opacity="0"/><stop offset="1" stop-color="#d1d3d4"/></linearGradient><linearGradient id="linear-gradient-2" x1="343.66406" y1="218.78442" x2="343.66406" y2="98.86182" xlink:href="#linear-gradient"/><linearGradient id="linear-gradient-3" x1="130.12732" y1="327.78555" x2="407.2196" y2="327.78555" gradientUnits="userSpaceOnUse"><stop offset="0" stop-color="#e8e7e5"/><stop offset="1" stop-color="#fff"/></linearGradient><linearGradient id="linear-gradient-4" x1="117.37855" y1="128.21936" x2="418.21297" y2="128.21936" xlink:href="#linear-gradient-3"/></defs><g id="Layer_2" data-name="Layer 2"><g id="Layer_1-2" data-name="Layer 1"><rect class="cls-1" width="538.58299" height="538.58299"/><polygon class="cls-2" points="463.775 486.215 269.289 538.583 74.8 486.215 29.921 0 508.662 0 463.775 486.215"/><polygon class="cls-3" points="269.287 39.383 269.287 496.816 269.726 496.934 427.116 454.555 463.444 39.383 269.287 39.383"/><polygon class="cls-4" points="269.115 160.956 129.913 218.931 134.531 276.328 269.115 218.784 412.276 157.577 418.213 98.862 269.115 160.956"/><polygon class="cls-5" points="129.913 218.931 134.531 276.328 269.115 218.784 269.115 160.956 129.913 218.931"/><polygon class="cls-6" points="418.213 98.862 269.115 160.956 269.115 218.784 412.276 157.577 418.213 98.862"/><polygon class="cls-7" points="130.127 218.931 134.746 276.328 341.246 276.987 336.628 353.515 268.677 372.647 203.356 356.154 199.398 308.653 138.703 308.653 146.62 400.356 269.336 436.64 391.385 401.014 407.22 218.931 130.127 218.931"/><g class="cls-8"><polygon class="cls-9" points="269.115 218.931 129.913 218.931 134.531 276.328 269.115 276.757 269.115 218.931"/><polygon class="cls-9" points="269.115 372.461 268.456 372.647 203.143 356.154 199.184 308.653 138.49 308.653 146.406 400.356 269.115 436.64 269.115 372.461"/></g><polygon class="cls-10" points="117.379 98.862 418.213 98.862 412.276 157.577 124.635 157.577 117.379 98.862"/><polygon class="cls-11" points="269.115 98.862 117.379 98.862 124.635 157.577 269.115 157.577 269.115 98.862"/></g></g></svg>